<svg xmlns="http://www.w3.org/2000/svg" xmlns:xlink="http://www.w3.org/1999/xlink" width="1366" zoomAndPan="magnify" viewBox="0 0 1024.5 149.999998" height="200" preserveAspectRatio="xMidYMid meet" version="1.0"><defs><g/></defs><g fill="#ffbf00" fill-opacity="1"><g transform="translate(3.687878, 121.322501)"><g><path d="M 11.734375 -93.84375 L 23.453125 -93.84375 L 23.453125 -53.953125 L 38.453125 -53.953125 L 59.828125 -93.84375 L 73.640625 -93.84375 L 48.75 -49.265625 L 74.9375 0 L 61 0 L 38.453125 -43.65625 L 23.453125 -43.65625 L 23.453125 0 L 11.734375 0 Z M 11.734375 -93.84375 "/></g></g></g><g fill="#000000" fill-opacity="1"><g transform="translate(81.891564, 121.322501)"><g><path d="M 11.078125 -93.84375 L 25.9375 -93.84375 L 50.828125 -30.890625 C 51.523438 -29.328125 52.175781 -27.523438 52.78125 -25.484375 C 53.382812 -23.441406 53.90625 -21.503906 54.34375 -19.671875 C 54.957031 -17.503906 55.523438 -15.289062 56.046875 -13.03125 L 57.078125 -13.03125 C 57.078125 -13.03125 57.035156 -13.484375 56.953125 -14.390625 C 56.867188 -15.304688 56.738281 -16.546875 56.5625 -18.109375 C 56.382812 -19.679688 56.226562 -21.488281 56.09375 -23.53125 C 55.96875 -25.570312 55.90625 -27.71875 55.90625 -29.96875 L 55.90625 -93.84375 L 67.125 -93.84375 L 67.125 0 L 52.265625 0 L 27.765625 -63.078125 C 27.066406 -65.078125 26.367188 -67.117188 25.671875 -69.203125 C 24.972656 -71.285156 24.410156 -73.195312 23.984375 -74.9375 C 23.367188 -76.9375 22.847656 -78.9375 22.421875 -80.9375 L 21.375 -80.9375 C 21.550781 -79.539062 21.722656 -77.972656 21.890625 -76.234375 C 21.984375 -74.765625 22.070312 -73.007812 22.15625 -70.96875 C 22.238281 -68.925781 22.28125 -66.644531 22.28125 -64.125 L 22.28125 0 L 11.078125 0 Z M 11.078125 -93.84375 "/></g></g></g><g fill="#000000" fill-opacity="1"><g transform="translate(160.081586, 121.322501)"><g><path d="M 22.15625 -26.71875 C 22.15625 -21.332031 23.675781 -17.050781 26.71875 -13.875 C 29.757812 -10.707031 33.882812 -9.125 39.09375 -9.125 C 44.3125 -9.125 48.441406 -10.707031 51.484375 -13.875 C 54.523438 -17.050781 56.046875 -21.332031 56.046875 -26.71875 L 56.046875 -67.125 C 56.046875 -72.507812 54.523438 -76.785156 51.484375 -79.953125 C 48.441406 -83.128906 44.3125 -84.71875 39.09375 -84.71875 C 33.882812 -84.71875 29.757812 -83.128906 26.71875 -79.953125 C 23.675781 -76.785156 22.15625 -72.507812 22.15625 -67.125 Z M 10.421875 -67.125 C 10.421875 -71.375 11.09375 -75.238281 12.4375 -78.71875 C 13.789062 -82.195312 15.703125 -85.148438 18.171875 -87.578125 C 20.648438 -90.015625 23.648438 -91.882812 27.171875 -93.1875 C 30.691406 -94.488281 34.664062 -95.140625 39.09375 -95.140625 C 43.53125 -95.140625 47.503906 -94.488281 51.015625 -93.1875 C 54.535156 -91.882812 57.535156 -90.015625 60.015625 -87.578125 C 62.492188 -85.148438 64.40625 -82.195312 65.75 -78.71875 C 67.09375 -75.238281 67.765625 -71.375 67.765625 -67.125 L 67.765625 -26.71875 C 67.765625 -22.457031 67.09375 -18.609375 65.75 -15.171875 C 64.40625 -11.742188 62.492188 -8.8125 60.015625 -6.375 C 57.535156 -3.945312 54.515625 -2.0625 50.953125 -0.71875 C 47.390625 0.625 43.4375 1.296875 39.09375 1.296875 C 34.664062 1.296875 30.691406 0.644531 27.171875 -0.65625 C 23.648438 -1.957031 20.648438 -3.820312 18.171875 -6.25 C 15.703125 -8.6875 13.789062 -11.640625 12.4375 -15.109375 C 11.09375 -18.585938 10.421875 -22.457031 10.421875 -26.71875 Z M 10.421875 -67.125 "/></g></g></g><g fill="#000000" fill-opacity="1"><g transform="translate(238.298938, 121.322501)"><g><path d="M 2.078125 -93.84375 L 14.859375 -93.84375 L 20.203125 -28.9375 C 20.378906 -27.457031 20.488281 -25.695312 20.53125 -23.65625 C 20.570312 -21.613281 20.59375 -19.59375 20.59375 -17.59375 C 20.675781 -15.332031 20.71875 -12.988281 20.71875 -10.5625 L 22.15625 -10.5625 C 22.238281 -12.988281 22.328125 -15.332031 22.421875 -17.59375 C 22.503906 -19.59375 22.609375 -21.613281 22.734375 -23.65625 C 22.867188 -25.695312 23.023438 -27.457031 23.203125 -28.9375 L 31.28125 -93.84375 L 47.171875 -93.84375 L 54.875 -28.9375 C 55.039062 -27.457031 55.164062 -25.695312 55.25 -23.65625 C 55.34375 -21.613281 55.476562 -19.59375 55.65625 -17.59375 C 55.820312 -15.332031 55.953125 -12.988281 56.046875 -10.5625 L 57.46875 -10.5625 C 57.46875 -12.988281 57.515625 -15.332031 57.609375 -17.59375 C 57.691406 -19.59375 57.753906 -21.613281 57.796875 -23.65625 C 57.835938 -25.695312 57.90625 -27.457031 58 -28.9375 L 63.203125 -93.84375 L 76.109375 -93.84375 L 66.46875 0 L 47.953125 0 L 40.65625 -64.765625 C 40.488281 -66.765625 40.335938 -68.828125 40.203125 -70.953125 C 40.078125 -73.085938 40.015625 -75.066406 40.015625 -76.890625 C 40.015625 -78.972656 40.015625 -81.015625 40.015625 -83.015625 L 38.578125 -83.015625 C 38.578125 -81.015625 38.578125 -78.972656 38.578125 -76.890625 C 38.492188 -75.066406 38.382812 -73.085938 38.25 -70.953125 C 38.125 -68.828125 37.929688 -66.765625 37.671875 -64.765625 L 29.71875 0 L 11.46875 0 Z M 2.078125 -93.84375 "/></g></g></g><g fill="#000000" fill-opacity="1"><g transform="translate(316.502624, 121.322501)"><g/></g></g><g fill="#ffbf00" fill-opacity="1"><g transform="translate(394.706311, 121.322501)"><g><path d="M 3.90625 -93.84375 L 16.296875 -93.84375 L 35.578125 -52.515625 C 36.179688 -51.304688 36.679688 -50.09375 37.078125 -48.875 C 37.472656 -47.65625 37.84375 -46.566406 38.1875 -45.609375 C 38.53125 -44.484375 38.832031 -43.351562 39.09375 -42.21875 L 39.625 -42.21875 C 39.882812 -43.351562 40.226562 -44.484375 40.65625 -45.609375 C 40.914062 -46.566406 41.265625 -47.65625 41.703125 -48.875 C 42.140625 -50.09375 42.617188 -51.304688 43.140625 -52.515625 L 61.78125 -93.84375 L 74.28125 -93.84375 L 44.96875 -32.578125 L 44.96875 0 L 33.234375 0 L 33.234375 -32.578125 Z M 3.90625 -93.84375 "/></g></g></g><g fill="#000000" fill-opacity="1"><g transform="translate(472.910009, 121.322501)"><g><path d="M 22.15625 -26.71875 C 22.15625 -21.332031 23.675781 -17.050781 26.71875 -13.875 C 29.757812 -10.707031 33.882812 -9.125 39.09375 -9.125 C 44.3125 -9.125 48.441406 -10.707031 51.484375 -13.875 C 54.523438 -17.050781 56.046875 -21.332031 56.046875 -26.71875 L 56.046875 -67.125 C 56.046875 -72.507812 54.523438 -76.785156 51.484375 -79.953125 C 48.441406 -83.128906 44.3125 -84.71875 39.09375 -84.71875 C 33.882812 -84.71875 29.757812 -83.128906 26.71875 -79.953125 C 23.675781 -76.785156 22.15625 -72.507812 22.15625 -67.125 Z M 10.421875 -67.125 C 10.421875 -71.375 11.09375 -75.238281 12.4375 -78.71875 C 13.789062 -82.195312 15.703125 -85.148438 18.171875 -87.578125 C 20.648438 -90.015625 23.648438 -91.882812 27.171875 -93.1875 C 30.691406 -94.488281 34.664062 -95.140625 39.09375 -95.140625 C 43.53125 -95.140625 47.503906 -94.488281 51.015625 -93.1875 C 54.535156 -91.882812 57.535156 -90.015625 60.015625 -87.578125 C 62.492188 -85.148438 64.40625 -82.195312 65.75 -78.71875 C 67.09375 -75.238281 67.765625 -71.375 67.765625 -67.125 L 67.765625 -26.71875 C 67.765625 -22.457031 67.09375 -18.609375 65.75 -15.171875 C 64.40625 -11.742188 62.492188 -8.8125 60.015625 -6.375 C 57.535156 -3.945312 54.515625 -2.0625 50.953125 -0.71875 C 47.390625 0.625 43.4375 1.296875 39.09375 1.296875 C 34.664062 1.296875 30.691406 0.644531 27.171875 -0.65625 C 23.648438 -1.957031 20.648438 -3.820312 18.171875 -6.25 C 15.703125 -8.6875 13.789062 -11.640625 12.4375 -15.109375 C 11.09375 -18.585938 10.421875 -22.457031 10.421875 -26.71875 Z M 10.421875 -67.125 "/></g></g></g><g fill="#000000" fill-opacity="1"><g transform="translate(551.10003, 121.322501)"><g><path d="M 39.09375 1.296875 C 30.144531 1.296875 23.238281 -1.132812 18.375 -6 C 13.507812 -10.863281 11.078125 -17.550781 11.078125 -26.0625 L 11.078125 -93.84375 L 22.8125 -93.84375 L 22.8125 -26.0625 C 22.8125 -20.851562 24.195312 -16.726562 26.96875 -13.6875 C 29.75 -10.644531 33.789062 -9.125 39.09375 -9.125 C 44.3125 -9.125 48.332031 -10.644531 51.15625 -13.6875 C 53.976562 -16.726562 55.390625 -20.851562 55.390625 -26.0625 L 55.390625 -93.84375 L 67.125 -93.84375 L 67.125 -26.0625 C 67.125 -17.457031 64.6875 -10.742188 59.8125 -5.921875 C 54.945312 -1.109375 48.039062 1.296875 39.09375 1.296875 Z M 39.09375 1.296875 "/></g></g></g><g fill="#000000" fill-opacity="1"><g transform="translate(629.290052, 121.322501)"><g><path d="M 41.703125 -93.84375 C 45.960938 -93.84375 49.828125 -93.1875 53.296875 -91.875 C 56.773438 -90.570312 59.753906 -88.703125 62.234375 -86.265625 C 64.710938 -83.835938 66.625 -80.953125 67.96875 -77.609375 C 69.3125 -74.265625 69.984375 -70.550781 69.984375 -66.46875 C 69.984375 -59.945312 68.3125 -54.40625 64.96875 -49.84375 C 61.625 -45.289062 57.082031 -42.144531 51.34375 -40.40625 L 71.296875 0 L 57.46875 0 L 39.234375 -39.09375 L 23.453125 -39.09375 L 23.453125 0 L 11.734375 0 L 11.734375 -93.84375 Z M 23.453125 -49.53125 L 41.703125 -49.53125 C 46.660156 -49.53125 50.59375 -51.070312 53.5 -54.15625 C 56.40625 -57.238281 57.859375 -61.34375 57.859375 -66.46875 C 57.859375 -71.59375 56.378906 -75.695312 53.421875 -78.78125 C 50.472656 -81.863281 46.566406 -83.40625 41.703125 -83.40625 L 23.453125 -83.40625 Z M 23.453125 -49.53125 "/></g></g></g><g fill="#000000" fill-opacity="1"><g transform="translate(707.480073, 121.322501)"><g/></g></g><g fill="#ffbf00" fill-opacity="1"><g transform="translate(785.690278, 121.322501)"><g><path d="M 41.703125 -93.84375 C 45.960938 -93.84375 49.828125 -93.1875 53.296875 -91.875 C 56.773438 -90.570312 59.753906 -88.703125 62.234375 -86.265625 C 64.710938 -83.835938 66.625 -80.953125 67.96875 -77.609375 C 69.3125 -74.265625 69.984375 -70.550781 69.984375 -66.46875 C 69.984375 -59.945312 68.3125 -54.40625 64.96875 -49.84375 C 61.625 -45.289062 57.082031 -42.144531 51.34375 -40.40625 L 71.296875 0 L 57.46875 0 L 39.234375 -39.09375 L 23.453125 -39.09375 L 23.453125 0 L 11.734375 0 L 11.734375 -93.84375 Z M 23.453125 -49.53125 L 41.703125 -49.53125 C 46.660156 -49.53125 50.59375 -51.070312 53.5 -54.15625 C 56.40625 -57.238281 57.859375 -61.34375 57.859375 -66.46875 C 57.859375 -71.59375 56.378906 -75.695312 53.421875 -78.78125 C 50.472656 -81.863281 46.566406 -83.40625 41.703125 -83.40625 L 23.453125 -83.40625 Z M 23.453125 -49.53125 "/></g></g></g><g fill="#000000" fill-opacity="1"><g transform="translate(863.893976, 121.322501)"><g><path d="M 43.40625 -93.84375 C 47.65625 -93.84375 51.519531 -93.1875 55 -91.875 C 58.476562 -90.570312 61.453125 -88.703125 63.921875 -86.265625 C 66.398438 -83.835938 68.3125 -80.953125 69.65625 -77.609375 C 71.007812 -74.265625 71.6875 -70.550781 71.6875 -66.46875 C 71.6875 -62.382812 70.988281 -58.671875 69.59375 -55.328125 C 68.207031 -51.984375 66.273438 -49.09375 63.796875 -46.65625 C 61.316406 -44.226562 58.335938 -42.359375 54.859375 -41.046875 C 51.390625 -39.742188 47.570312 -39.09375 43.40625 -39.09375 L 23.453125 -39.09375 L 23.453125 0 L 11.734375 0 L 11.734375 -93.84375 Z M 23.453125 -83.40625 L 23.453125 -49.53125 L 43.40625 -49.53125 C 48.269531 -49.53125 52.175781 -51.070312 55.125 -54.15625 C 58.082031 -57.238281 59.5625 -61.34375 59.5625 -66.46875 C 59.5625 -71.59375 58.082031 -75.695312 55.125 -78.78125 C 52.175781 -81.863281 48.269531 -83.40625 43.40625 -83.40625 Z M 23.453125 -83.40625 "/></g></g></g><g fill="#000000" fill-opacity="1"><g transform="translate(942.083997, 121.322501)"><g><path d="M 39.875 -95.140625 C 48.039062 -95.140625 54.625 -92.898438 59.625 -88.421875 C 64.625 -83.953125 67.597656 -77.71875 68.546875 -69.71875 L 56.828125 -69.71875 C 56.304688 -74.414062 54.546875 -78.085938 51.546875 -80.734375 C 48.546875 -83.390625 44.65625 -84.71875 39.875 -84.71875 C 34.664062 -84.71875 30.539062 -83.148438 27.5 -80.015625 C 24.457031 -76.890625 22.9375 -72.59375 22.9375 -67.125 L 22.9375 -26.71875 C 22.9375 -21.238281 24.4375 -16.9375 27.4375 -13.8125 C 30.4375 -10.6875 34.582031 -9.125 39.875 -9.125 C 44.65625 -9.125 48.546875 -10.445312 51.546875 -13.09375 C 54.546875 -15.75 56.304688 -19.421875 56.828125 -24.109375 L 68.546875 -24.109375 C 67.597656 -16.117188 64.625 -9.882812 59.625 -5.40625 C 54.625 -0.9375 48.039062 1.296875 39.875 1.296875 C 35.445312 1.296875 31.472656 0.644531 27.953125 -0.65625 C 24.429688 -1.957031 21.429688 -3.820312 18.953125 -6.25 C 16.484375 -8.6875 14.570312 -11.640625 13.21875 -15.109375 C 11.875 -18.585938 11.203125 -22.457031 11.203125 -26.71875 L 11.203125 -67.125 C 11.203125 -71.375 11.875 -75.238281 13.21875 -78.71875 C 14.570312 -82.195312 16.484375 -85.148438 18.953125 -87.578125 C 21.429688 -90.015625 24.429688 -91.882812 27.953125 -93.1875 C 31.472656 -94.488281 35.445312 -95.140625 39.875 -95.140625 Z M 39.875 -95.140625 "/></g></g></g><path stroke-linecap="butt" transform="matrix(1.090331, 0, 0, 1.090331, 16.044187, 122.870138)" fill="none" stroke-linejoin="miter" d="M -0.00111732 3.999089 L 911.161295 3.999089 " stroke="#ffbf00" stroke-width="8" stroke-opacity="1" stroke-miterlimit="4"/></svg>