<svg xmlns="http://www.w3.org/2000/svg" xmlns:xlink="http://www.w3.org/1999/xlink" width="350" zoomAndPan="magnify" viewBox="0 0 262.5 149.999998" height="200" preserveAspectRatio="xMidYMid meet" version="1.0"><defs><g/></defs><g fill="#000000" fill-opacity="1"><g transform="translate(-3.812867, 137.558619)"><g><path d="M 16.25 -129.953125 L 32.484375 -129.953125 L 32.484375 -74.734375 L 53.25 -74.734375 L 82.84375 -129.953125 L 101.984375 -129.953125 L 67.5 -68.234375 L 103.78125 0 L 84.46875 0 L 53.25 -60.46875 L 32.484375 -60.46875 L 32.484375 0 L 16.25 0 Z M 16.25 -129.953125 "/></g></g></g><g fill="#ffbf00" fill-opacity="1"><g transform="translate(76.157821, 137.558619)"><g><path d="M 5.421875 -129.953125 L 22.5625 -129.953125 L 49.28125 -72.734375 C 50.125 -71.054688 50.816406 -69.375 51.359375 -67.6875 C 51.898438 -66 52.410156 -64.492188 52.890625 -63.171875 C 53.367188 -61.609375 53.789062 -60.046875 54.15625 -58.484375 L 54.875 -58.484375 C 55.226562 -60.046875 55.707031 -61.609375 56.3125 -63.171875 C 56.675781 -64.492188 57.15625 -66 57.75 -67.6875 C 58.351562 -69.375 59.019531 -71.054688 59.75 -72.734375 L 85.5625 -129.953125 L 102.890625 -129.953125 L 62.265625 -45.125 L 62.265625 0 L 46.03125 0 L 46.03125 -45.125 Z M 5.421875 -129.953125 "/></g></g></g><g fill="#000000" fill-opacity="1"><g transform="translate(156.128509, 137.558619)"><g><path d="M 57.765625 -129.953125 C 63.660156 -129.953125 69.015625 -129.050781 73.828125 -127.25 C 78.640625 -125.445312 82.757812 -122.859375 86.1875 -119.484375 C 89.613281 -116.117188 92.257812 -112.117188 94.125 -107.484375 C 95.988281 -102.847656 96.921875 -97.707031 96.921875 -92.0625 C 96.921875 -83.03125 94.601562 -75.351562 89.96875 -69.03125 C 85.34375 -62.71875 79.054688 -58.359375 71.109375 -55.953125 L 98.734375 0 L 79.59375 0 L 54.328125 -54.15625 L 32.484375 -54.15625 L 32.484375 0 L 16.25 0 L 16.25 -129.953125 Z M 32.484375 -68.59375 L 57.765625 -68.59375 C 64.617188 -68.59375 70.0625 -70.726562 74.09375 -75 C 78.125 -79.269531 80.140625 -84.957031 80.140625 -92.0625 C 80.140625 -99.15625 78.09375 -104.835938 74 -109.109375 C 69.914062 -113.378906 64.503906 -115.515625 57.765625 -115.515625 L 32.484375 -115.515625 Z M 32.484375 -68.59375 "/></g></g></g><path stroke-linecap="butt" transform="matrix(1.701673, 0, 0, 1.701673, 12.430886, 138.081914)" fill="none" stroke-linejoin="miter" d="M -0.000704543 1.000922 L 142.776954 1.000922 " stroke="#ffbf00" stroke-width="2" stroke-opacity="1" stroke-miterlimit="4"/></svg>